
<svg  xmlns="http://www.w3.org/2000/svg" xmlns:xlink="http://www.w3.org/1999/xlink" x="0px" y="0px"
	 viewBox="0 0 165 175" style="enable-background:new 0 0 165 175;" xml:space="preserve">

<path d="M21.9,52.4l-6.1-3.7c0,0.6-0.1,1.2-0.3,1.9l-0.3-0.1c0.2-0.8,0.3-1.4,0.2-1.9c-0.1-0.5-0.4-1-0.9-1.5
	c0.2-0.4,0.3-0.8,0.3-1.1l8,4.8l0.9-1.5l0.3,0.2L21.3,54L21,53.8L21.9,52.4z"/>
<path d="M23.7,36.2c-0.2-1.2,0.1-2.3,1-3.2c0.9-0.9,1.9-1.3,3.1-1.1c1.2,0.2,2.3,0.7,3.4,1.7c1,1,1.6,2.1,1.8,3.3
	c0.2,1.2-0.1,2.3-1,3.2c-0.9,0.9-1.9,1.3-3.2,1.2c-1.2-0.2-2.3-0.7-3.4-1.7C24.5,38.5,23.9,37.4,23.7,36.2z M30.9,40.3
	c0.3-0.1,0.7-0.2,0.9-0.5c0.3-0.3,0.4-0.6,0.5-0.9c0-0.4,0-0.7-0.1-1c-0.1-0.3-0.3-0.6-0.6-1c-0.3-0.4-0.6-0.7-0.8-1
	c-0.2-0.2-0.5-0.5-0.9-0.9c-0.4-0.4-0.7-0.7-1-0.9c-0.3-0.2-0.6-0.5-1-0.7c-0.4-0.3-0.8-0.5-1.1-0.6c-0.3-0.1-0.6-0.1-1,0
	c-0.3,0-0.7,0.2-0.9,0.5c-0.3,0.3-0.4,0.6-0.5,1c0,0.3,0,0.7,0.1,1c0.1,0.3,0.3,0.6,0.6,1c0.3,0.4,0.6,0.7,0.8,0.9
	c0.2,0.2,0.5,0.5,0.9,0.9c0.4,0.4,0.7,0.7,1,0.9c0.3,0.2,0.6,0.5,1,0.8c0.4,0.3,0.7,0.5,1,0.6C30.2,40.3,30.5,40.4,30.9,40.3z"/>
<path d="M58,8l0.1,0.3l-1.6,0.6l4.8,11.6l1.6-0.6l0.1,0.3l-4.9,2L58,21.9l1.4-0.6l-4.4-10.8l-0.1,0L55.7,23l-0.1,0
	c-0.4,0.2-0.7,0.1-1,0c-0.3-0.2-0.7-0.5-1-0.9l-7.4-7.9l-0.1,0l3.5,8.4c0.4,0.9,0.8,1.5,1.3,1.7c0.5,0.2,1.2,0.1,2.1-0.3l0.1-0.1
	l0.1,0.3l-5.4,2.2l-0.1-0.3c0.9-0.4,1.5-0.8,1.7-1.3c0.2-0.5,0.1-1.2-0.2-2.1l-3.5-8.5c-0.1-0.3-0.4-0.4-0.6-0.5
	c-0.2,0-0.6,0-0.9,0.2l-0.8,0.3l-0.1-0.3l4.3-1.8l7.6,8.2l0.1,0l-0.8-11L58,8z"/>
<path d="M72.5,18.3l1.3-0.2l0,0.3l-4.4,0.7l0-0.3l1.3-0.2l-1.4-8.6l-1.4,0.2l0-0.3l0.4-0.1c1-0.2,2-0.4,2.8-0.7
	L72.5,18.3z M68.9,7.4c-0.3-0.2-0.4-0.5-0.5-0.8c-0.1-0.3,0-0.6,0.2-0.9c0.2-0.3,0.5-0.4,0.8-0.5c0.3-0.1,0.6,0,0.9,0.2
	c0.3,0.2,0.4,0.5,0.5,0.8c0.1,0.3,0,0.6-0.2,0.9c-0.2,0.3-0.5,0.4-0.8,0.5C69.5,7.7,69.2,7.6,68.9,7.4z"/>
<path d="M84.6,17.6l0,0.3l-4.5-0.2l0-0.3l1.3,0.1l0.4-8.7l-1.4-0.1l0-0.3l0.4,0c1.1,0,2,0,2.9-0.1l-0.1,2l0.1,0
	C84,9.6,84.4,9.1,85,8.7c0.6-0.4,1.2-0.6,1.9-0.5c1.2,0,2,0.4,2.4,1.2c0.4,0.7,0.6,1.8,0.5,3.1l-0.2,5.3l1.3,0.1l0,0.3L86.4,18
	l0-0.3l1.3,0.1l0.2-5c0.1-1.5,0-2.5-0.2-3c-0.1-0.2-0.3-0.4-0.5-0.6c-0.2-0.2-0.5-0.3-1-0.3c-0.4,0-0.9,0.1-1.3,0.4
	c-0.4,0.3-0.7,0.7-0.9,1.2c-0.4,0.9-0.6,2.1-0.6,3.4l-0.2,3.7L84.6,17.6z"/>
<path d="M102.2,11.3l-1.7,6.7c-0.3,1.1-0.4,1.7-0.2,1.9c0.1,0.1,0.2,0.1,0.3,0.2c0.3,0.1,0.7,0,1.1-0.3
	c0.4-0.3,0.8-0.7,1.1-1.1l0.3,0.2c-0.4,0.6-0.9,1-1.4,1.3c-0.5,0.3-1.1,0.4-1.6,0.3c-0.8-0.2-1.2-0.6-1.3-1.1
	c-0.1-0.5,0-1.3,0.2-2.3l1.6-6.3L99,10.5l0.1-0.3l0.1,0c1.5,0.4,2.7-0.3,3.4-1.9l0.3,0.1l-0.7,2.6l2.4,0.6l-0.1,0.3L102.2,11.3z"/>
<path d="M116.3,15.6c1.9,0.9,2.5,1.9,1.9,3.2c-0.2,0.4-0.4,0.6-0.8,0.8c-0.3,0.1-0.7,0.1-1,0c-0.3-0.1-0.5-0.4-0.7-0.6
	c-0.1-0.3-0.1-0.6,0-0.8c0.1-0.3,0.3-0.5,0.6-0.6c0.3-0.1,0.5-0.1,0.8,0c0.4,0.2,0.6,0.5,0.5,0.8c0,0.1,0,0.2,0.1,0.2
	c0.1,0.1,0.2,0,0.2-0.1c0.2-0.3,0.1-0.7-0.1-1.2c-0.2-0.4-0.7-0.8-1.4-1.1c-0.7-0.3-1.3-0.5-1.9-0.4c-0.6,0.1-1,0.3-1.2,0.8
	c-0.2,0.5-0.2,0.9,0,1.4c0.2,0.4,0.5,0.9,1,1.3c0.4,0.4,0.8,0.9,1.2,1.3c0.4,0.4,0.7,0.9,0.9,1.5c0.2,0.5,0.1,1.1-0.1,1.6
	c-0.4,0.9-1.1,1.5-2,1.6c-0.9,0.1-1.8,0-2.7-0.5c-1-0.5-1.7-1-2.1-1.6c-0.4-0.6-0.5-1.3-0.2-2c0.2-0.4,0.4-0.6,0.8-0.8
	c0.4-0.1,0.7-0.1,1,0c0.3,0.2,0.6,0.4,0.7,0.7c0.1,0.3,0.1,0.6,0,0.8c-0.1,0.3-0.3,0.5-0.6,0.6c-0.2,0.1-0.5,0.1-0.8,0
	c-0.4-0.2-0.6-0.5-0.5-0.8c0-0.1,0-0.2-0.1-0.3c-0.1,0-0.2,0-0.2,0.1c-0.2,0.4-0.1,0.8,0.1,1.3c0.3,0.5,0.8,1,1.6,1.3
	c1.8,0.8,2.9,0.7,3.5-0.5c0.3-0.7,0-1.6-1-2.6c-0.4-0.4-0.9-0.9-1.3-1.3c-0.4-0.4-0.7-0.9-0.9-1.5s-0.1-1.1,0.1-1.6
	c0.4-0.8,1-1.3,1.8-1.4C114.6,15.1,115.4,15.2,116.3,15.6z"/>
<path d="M146.9,34.8l-0.2,0.2c-0.5-0.4-0.9-0.7-1.4-0.9c-0.5-0.2-1-0.1-1.7,0.1l-5.2,1.6L134,40l1.2,1.2l-0.2,0.2
	l-3.7-3.8l0.2-0.2l1,1.1l4.2-4l2.4-7.3l-1-1.1l0.2-0.2l3.8,3.9l-0.2,0.2l-1.2-1.2l-2.2,6.6l3.6-1.1c0.8-0.2,1.3-0.5,1.6-0.8
	c0.3-0.3,0.4-0.6,0.3-1c-0.1-0.3-0.4-0.8-0.8-1.2l-0.1-0.1l0.2-0.2L146.9,34.8z"/>
<path d="M145.4,54.6c-1.2-0.2-2.2-0.9-2.9-2.1c-0.7-1.2-0.9-2.4-0.4-3.6c0.4-1.2,1.3-2.1,2.6-2.9c1.3-0.8,2.5-1,3.8-0.8
	c1.2,0.2,2.2,0.9,2.9,2.1c0.7,1.2,0.9,2.4,0.4,3.6c-0.4,1.2-1.3,2.1-2.6,2.9C147.8,54.6,146.6,54.8,145.4,54.6z M146.9,52.8
	c0.4-0.2,0.8-0.4,1.2-0.7c0.4-0.3,0.8-0.5,1.2-0.7c0.3-0.2,0.7-0.5,1-0.8c0.3-0.3,0.6-0.6,0.7-0.9c0.2-0.3,0.3-0.6,0.3-1
	c0-0.4-0.1-0.7-0.3-1.1c-0.2-0.4-0.5-0.7-0.8-0.8c-0.3-0.2-0.7-0.3-1-0.3c-0.3,0-0.7,0.1-1.2,0.2c-0.4,0.1-0.8,0.3-1.2,0.5
	c-0.4,0.2-0.8,0.4-1.2,0.7c-0.4,0.3-0.8,0.5-1.2,0.7c-0.3,0.2-0.7,0.5-1,0.8c-0.3,0.3-0.6,0.6-0.8,0.9c-0.2,0.3-0.2,0.6-0.2,1
	c0,0.4,0.1,0.8,0.3,1.1c0.2,0.4,0.5,0.6,0.8,0.8c0.3,0.2,0.7,0.3,1,0.3c0.3,0,0.7-0.1,1.2-0.2C146.2,53.1,146.6,52.9,146.9,52.8z"/>
<path d="M161.6,65.3c-0.1-0.3-0.3-0.5-0.6-0.7c-0.3-0.1-0.6-0.2-1,0c-0.7,0.2-1.1,0.7-1.4,1.4c-0.5,1.3-1.4,2.2-2.8,2.6
	c-1.1,0.4-2.2,0.3-3.2-0.2c-1-0.5-1.6-1.3-2-2.4c-0.2-0.5-0.2-1-0.2-1.5c-0.3-0.4-0.6-0.8-1-1.1c-0.4-0.3-0.8-0.4-1.1-0.2
	c-0.6,0.2-0.8,0.7-0.5,1.6c0.1,0.4,0.5,1,1.2,1.9c0.7,0.9,1.1,1.6,1.3,2.1c0.2,0.5,0.1,1-0.1,1.4c-0.2,0.4-0.7,0.8-1.3,1
	c-0.9,0.3-1.8,0.2-2.5-0.4c-0.8-0.6-1.3-1.3-1.6-2.2c-0.6-1.8-0.2-3.2,1.1-4.3c-0.1-0.9,0.4-1.5,1.4-1.8c0.6-0.2,1.1-0.1,1.7,0.2
	c0.6,0.3,1.1,0.8,1.5,1.4c0.1-0.7,0.4-1.4,0.9-1.9c0.5-0.5,1.2-0.9,1.9-1.2c1.1-0.4,2.2-0.3,3.2,0.2c1,0.5,1.6,1.3,2,2.4
	c0.1,0.4,0.2,0.9,0.2,1.5l0.1,0c0.3-0.4,0.6-0.7,1.1-0.9c0.5-0.2,0.9-0.1,1.3,0.1c0.4,0.2,0.7,0.6,0.8,1c0.1,0.4,0.1,0.8,0,1.2
	c-0.2,0.3-0.4,0.6-0.7,0.7c-0.3,0.1-0.6,0.1-0.9,0c-0.3-0.1-0.4-0.3-0.5-0.6c-0.1-0.3-0.1-0.6,0-0.8c0.1-0.3,0.3-0.4,0.6-0.5
	c0.4-0.1,0.7,0,0.9,0.3c0.1,0.1,0.1,0.1,0.2,0.1C161.6,65.5,161.6,65.5,161.6,65.3z M153.8,67.3c0.4-0.1,0.9-0.2,1.4-0.3
	c0.5-0.2,1-0.3,1.3-0.5c0.4-0.2,0.7-0.4,1-0.6c0.3-0.2,0.6-0.5,0.7-0.9c0.1-0.3,0.1-0.7-0.1-1.2c-0.1-0.4-0.3-0.8-0.6-1
	c-0.3-0.2-0.6-0.3-1-0.4c-0.4,0-0.8,0-1.2,0.1c-0.4,0.1-0.8,0.2-1.4,0.4c-0.5,0.2-1,0.3-1.3,0.5c-0.4,0.2-0.7,0.4-1,0.6
	c-0.3,0.2-0.6,0.5-0.7,0.9c-0.1,0.3-0.1,0.7,0.1,1.2s0.3,0.8,0.6,1c0.3,0.2,0.6,0.3,1,0.4C153,67.4,153.4,67.3,153.8,67.3z
	 M146,64.8L146,64.8c-0.5,0.3-0.9,0.9-1,1.5c-0.2,0.7-0.1,1.3,0.1,2c0.2,0.7,0.6,1.3,1.1,1.8c0.5,0.5,1.1,0.6,1.7,0.4
	c0.4-0.1,0.6-0.3,0.7-0.6c0.1-0.3,0.1-0.6,0-1c-0.1-0.4-0.5-1-1.3-2C146.6,65.9,146.1,65.2,146,64.8z"/>
<path d="M161.9,80.9c0.1,1.6-0.2,2.7-0.8,3.3c-0.7,0.6-1.9,0.9-3.7,1.1l-3.6,0.3c-0.6,0-0.8,0.2-0.8,0.4
	c0,0.5,0.8,0.8,2.4,0.8l0,0.4c-2.1,0-3.2-0.6-3.3-1.8c0-0.3,0.1-0.6,0.3-0.8c0.2-0.2,0.5-0.3,0.8-0.4c0.3-0.1,0.7-0.1,1.1-0.1l0-0.1
	c-0.7-0.1-1.3-0.4-1.7-0.9c-0.4-0.5-0.7-1.2-0.8-2c-0.1-0.8,0.1-1.6,0.5-2.3c0.4-0.7,1-1,1.9-1.1c0.6,0,1.2,0.1,1.6,0.4
	c0.9,0.7,1.5,2.4,1.7,5.1c0,0.1,0,0.3,0,0.5l1-0.1c1.1-0.1,1.9-0.3,2.4-0.7c0.5-0.4,0.7-1.1,0.7-2c-0.1-0.9-0.3-1.5-0.7-1.9
	c-0.4-0.4-0.8-0.6-1.2-0.5c-0.1,0-0.2,0.1-0.2,0.2c0,0.1,0.1,0.2,0.2,0.2c0.4,0.1,0.6,0.3,0.6,0.8c0,0.3-0.1,0.5-0.3,0.7
	c-0.2,0.2-0.4,0.3-0.8,0.3c-0.3,0-0.6-0.1-0.8-0.3c-0.2-0.2-0.3-0.5-0.4-0.8c0-0.4,0.1-0.7,0.3-1c0.3-0.3,0.6-0.4,1-0.5
	c0.8-0.1,1.4,0.2,1.8,0.8C161.6,79.2,161.9,80,161.9,80.9z M155.8,83.5l1.4-0.1c0-0.1,0-0.4-0.1-0.6c0-0.3-0.1-0.6-0.1-1
	c-0.1-0.4-0.2-0.8-0.4-1.2c-0.4-0.8-1.1-1.2-2.2-1.1c-0.6,0.1-1.2,0.2-1.5,0.6c-0.4,0.3-0.5,0.9-0.5,1.5c0.1,0.7,0.4,1.2,1.1,1.6
	C154.1,83.5,154.9,83.6,155.8,83.5z"/>
<path d="M150.9,103.4l0.3,0.1l-0.4,1.4l12,3.7l0.4-1.4l0.3,0.1l-2.8,9.3l-4.2-1.3l0.1-0.3c0.9,0.3,1.5,0.4,2,0.5
	c0.5,0.1,0.9,0,1.3-0.2c0.4-0.2,0.7-0.5,1-0.9c0.2-0.4,0.5-1.1,0.8-1.9l0.5-1.8l-5.8-1.8l-0.3,1c-0.3,0.9-0.3,1.6-0.1,2.1
	c0.3,0.5,0.9,0.8,1.8,1.1l-0.1,0.3l-5.4-1.6l0.1-0.3c1,0.3,1.7,0.3,2.1,0.1c0.5-0.2,0.9-0.8,1.2-1.8l0.3-1l-5.9-1.8l-0.5,1.6
	l-0.3-0.1L150.9,103.4z"/>
<path d="M142.1,126.5c-0.4-1.2-0.3-2.3,0.4-3.6c0.7-1.2,1.7-1.9,2.9-2.1c1.2-0.2,2.5,0.1,3.8,0.8
	c1.3,0.8,2.1,1.7,2.6,2.9c0.4,1.2,0.3,2.3-0.4,3.6c-0.7,1.2-1.7,1.9-2.9,2.1c-1.2,0.2-2.5-0.1-3.8-0.8
	C143.3,128.6,142.5,127.7,142.1,126.5z M144.5,126.9c0.3,0.2,0.7,0.5,1.2,0.7c0.4,0.3,0.8,0.5,1.2,0.7c0.4,0.2,0.8,0.3,1.2,0.5
	c0.4,0.1,0.8,0.2,1.2,0.2c0.3,0,0.7-0.1,1-0.3c0.3-0.2,0.6-0.4,0.8-0.8c0.2-0.4,0.3-0.8,0.3-1.1c0-0.4-0.1-0.7-0.3-1
	c-0.2-0.3-0.4-0.6-0.7-0.9c-0.3-0.3-0.7-0.6-1-0.8c-0.3-0.2-0.7-0.5-1.2-0.7c-0.4-0.3-0.8-0.5-1.2-0.7c-0.4-0.2-0.7-0.3-1.2-0.5
	c-0.4-0.1-0.8-0.2-1.2-0.2c-0.3,0-0.7,0.1-1,0.3c-0.3,0.2-0.6,0.5-0.8,0.8c-0.2,0.4-0.3,0.7-0.3,1.1c0,0.4,0.1,0.7,0.2,1
	c0.2,0.3,0.4,0.6,0.8,0.9C143.8,126.4,144.1,126.7,144.5,126.9z"/>
<path d="M137.7,143.2c0.3,0.2,0.6,0.3,0.9,0.3c0.3,0,0.7-0.2,1-0.5c0.3-0.3,0.4-0.7,0.4-1.3c0-0.5-0.1-1-0.4-1.5
	c-0.5-1-1.3-1.9-2.2-2.8l-2.8-2.6l-1,1.1l-0.2-0.2l3.1-3.4l0.2,0.2l-0.9,1l6.4,5.9l1-1.1l0.2,0.2l-0.3,0.3c-0.7,0.8-1.3,1.6-1.7,2.3
	l-1.6-1.4l-0.1,0.1c0.7,1.4,0.7,2.6-0.1,3.4c-0.3,0.4-0.7,0.6-1.2,0.6c-0.5,0-0.8-0.1-1.2-0.4c-0.3-0.3-0.5-0.7-0.5-1.1
	c0-0.4,0.1-0.7,0.3-1c0.2-0.3,0.5-0.4,0.8-0.4c0.3,0,0.6,0.1,0.8,0.3c0.2,0.2,0.4,0.5,0.4,0.7c0,0.3,0,0.5-0.2,0.7
	c-0.3,0.3-0.6,0.4-0.9,0.2c-0.1-0.1-0.2-0.1-0.3,0C137.6,143.1,137.6,143.1,137.7,143.2z"/>
<path d="M114.1,150.1l4.4-2.2l0.1,0.3l-1.3,0.7l5.6,11.3l1.3-0.7l0.1,0.3l-4.1,2c-1.7,0.9-3.1,1.3-4,1.3
	c-0.9,0-1.6-0.4-2.1-1.4c-0.4-0.9-0.5-1.7-0.2-2.5c0.3-0.7,1-1.4,1.9-1.9l-0.1-0.1c-1.1,0.5-2.1,0.7-2.9,0.5c-0.9-0.1-1.6-0.7-2-1.6
	C109.7,153.8,110.8,151.8,114.1,150.1z M114.6,150.3c-1.1,0.6-1.8,1.2-2.1,2c-0.3,0.8-0.2,1.7,0.4,2.8c0.5,1.1,1.2,1.7,2,1.8
	c0.8,0.1,1.9-0.1,3.1-0.8l0.4-0.2l-3-6L114.6,150.3z M118,156.4c-1.1,0.5-1.8,1.1-2.1,1.8c-0.3,0.7-0.3,1.5,0.2,2.4
	c0.5,0.9,1,1.4,1.7,1.5c0.6,0.1,1.5-0.1,2.5-0.6l0.8-0.4l-2.5-5L118,156.4z"/>
<path d="M99.8,165.5c-1,0.2-1.9,0.2-2.6-0.1c-0.8-0.3-1.3-0.8-1.4-1.7c-0.3-1.3,0.3-2.3,1.7-2.9
	c0.7-0.3,1.6-0.6,2.8-0.9l0.9-0.2l-0.1-0.6c-0.2-1.1-0.7-1.9-1.3-2.5c-0.6-0.6-1.3-0.7-2.2-0.5c-0.9,0.2-1.5,0.6-1.8,1.2
	c-0.4,0.6-0.6,1.3-0.6,2.2l-0.4,0c0-1,0.2-1.9,0.8-2.6c0.5-0.7,1.2-1.2,2.2-1.4c1.4-0.3,2.5-0.1,3.4,0.6c0.9,0.7,1.6,1.9,1.9,3.4
	c0.3,1.5,0.2,2.8-0.3,3.9C102.2,164.5,101.2,165.2,99.8,165.5z M101.2,160.2l-0.7,0.2c-1.1,0.2-1.8,0.5-2.2,0.8
	c-0.4,0.3-0.6,0.6-0.7,1c-0.1,0.4-0.1,0.8,0.1,1.4c0.1,0.6,0.4,1,0.8,1.3c0.4,0.3,0.8,0.5,1.4,0.3c0.6-0.1,1-0.5,1.3-1
	c0.3-0.5,0.4-1,0.4-1.6c0-0.6-0.1-1.2-0.2-1.9L101.2,160.2z"/>
<path d="M80.7,169.8c0.3,0,0.6-0.1,0.8-0.4c0.2-0.2,0.3-0.6,0.3-1c0-0.7-0.3-1.3-1-1.8c-1.1-0.8-1.7-2-1.7-3.4
	c0-1.2,0.4-2.2,1.1-3c0.7-0.8,1.7-1.2,2.9-1.2c0.6,0,1.1,0.1,1.5,0.3c0.5-0.2,0.9-0.4,1.3-0.7c0.4-0.3,0.6-0.6,0.6-1
	c0-0.7-0.5-1-1.4-1c-0.4,0-1.1,0.2-2.2,0.6c-1.1,0.4-1.8,0.6-2.4,0.6c-0.5,0-1-0.2-1.3-0.5c-0.4-0.4-0.5-0.9-0.5-1.5
	c0-1,0.4-1.7,1.1-2.3c0.8-0.6,1.6-0.9,2.6-0.9c1.9,0,3.1,0.8,3.7,2.3c0.9,0.2,1.3,0.8,1.3,1.8c0,0.6-0.2,1.1-0.7,1.6
	c-0.5,0.5-1.1,0.8-1.8,1c0.7,0.3,1.2,0.8,1.5,1.5c0.4,0.6,0.6,1.4,0.6,2.2c0,1.2-0.4,2.2-1.1,3c-0.8,0.8-1.7,1.2-2.9,1.2
	c-0.4,0-0.9-0.1-1.4-0.2l0,0c0.3,0.4,0.5,0.8,0.5,1.3c0,0.5-0.2,0.9-0.5,1.2c-0.3,0.3-0.7,0.5-1.2,0.5c-0.5,0-0.8-0.1-1.1-0.4
	c-0.3-0.3-0.4-0.6-0.4-0.9c0-0.4,0.1-0.6,0.3-0.9c0.2-0.2,0.5-0.3,0.8-0.3c0.3,0,0.6,0.1,0.8,0.3c0.2,0.2,0.3,0.4,0.3,0.7
	c0,0.4-0.2,0.7-0.5,0.8c-0.1,0-0.2,0.1-0.2,0.2C80.5,169.8,80.6,169.8,80.7,169.8z M81.2,161.9c-0.1,0.4-0.1,0.9-0.1,1.4
	c0,0.6,0,1,0.1,1.4c0,0.4,0.1,0.8,0.3,1.2c0.1,0.4,0.4,0.7,0.7,0.9c0.3,0.2,0.7,0.3,1.1,0.3c0.5,0,0.8-0.1,1.1-0.3
	c0.3-0.2,0.5-0.5,0.6-0.9c0.1-0.4,0.2-0.8,0.3-1.2c0-0.4,0.1-0.8,0.1-1.4c0-0.6,0-1-0.1-1.4c-0.1-0.4-0.2-0.8-0.3-1.2
	c-0.1-0.4-0.4-0.7-0.7-0.9c-0.3-0.2-0.7-0.3-1.1-0.3c-0.5,0-0.8,0.1-1.1,0.3c-0.3,0.2-0.5,0.5-0.6,0.9
	C81.3,161.1,81.2,161.5,81.2,161.9z M85.8,155.2L85.8,155.2c-0.2-0.6-0.6-1.1-1.1-1.4c-0.6-0.4-1.2-0.5-2-0.5c-0.7,0-1.4,0.2-2,0.5
	c-0.6,0.3-0.9,0.8-0.9,1.5c0,0.4,0.1,0.7,0.4,0.9c0.2,0.2,0.5,0.3,0.9,0.3c0.4,0,1.2-0.2,2.3-0.6C84.6,155.4,85.4,155.2,85.8,155.2z
	"/>
<path d="M68.7,156.6l-1.3-0.2l0.1-0.3l4.4,0.8l-0.1,0.3l-1.3-0.2l-1.6,8.6l1.4,0.3l-0.1,0.3l-0.4-0.1
	c-1-0.2-2-0.3-2.8-0.3L68.7,156.6z M68.4,168c0.2,0.3,0.2,0.6,0.2,0.9c-0.1,0.3-0.2,0.6-0.5,0.8c-0.3,0.2-0.6,0.2-0.9,0.2
	c-0.3-0.1-0.6-0.2-0.8-0.5c-0.2-0.3-0.2-0.6-0.2-0.9c0.1-0.3,0.2-0.6,0.5-0.8c0.3-0.2,0.6-0.2,0.9-0.2
	C67.9,167.6,68.2,167.7,68.4,168z"/>
<path d="M57,153.2l0.1-0.3l4.2,1.7l-0.1,0.3l-1.2-0.5l-3.3,8.1L58,163l-0.1,0.3l-0.4-0.2c-1-0.4-1.9-0.7-2.8-0.8
	l0.8-1.9l-0.1,0c-0.5,0.5-1,0.9-1.7,1c-0.7,0.2-1.3,0.1-1.9-0.1c-1.1-0.4-1.7-1.1-1.8-1.9c-0.1-0.8,0-1.8,0.6-3.1l2-4.9l-1.2-0.5
	l0.1-0.3l4.2,1.7l-0.1,0.3l-1.2-0.5l-1.9,4.6c-0.6,1.4-0.8,2.4-0.8,2.9c0,0.2,0.1,0.5,0.3,0.7c0.1,0.2,0.4,0.4,0.8,0.6
	c0.4,0.2,0.8,0.2,1.3,0c0.5-0.1,0.9-0.4,1.3-0.9c0.7-0.8,1.3-1.8,1.8-3l1.4-3.4L57,153.2z"/>
<path d="M36.4,152.7c-0.8-0.6-1.4-1.2-1.7-2c-0.3-0.8-0.2-1.5,0.3-2.2c0.8-1.1,1.9-1.3,3.3-0.7c0.7,0.3,1.6,0.8,2.5,1.5
	l0.8,0.5l0.3-0.5c0.6-0.9,1-1.8,1-2.6c0-0.8-0.3-1.5-1.1-2c-0.7-0.5-1.4-0.7-2.1-0.5c-0.7,0.1-1.4,0.5-2,1l-0.3-0.2
	c0.7-0.7,1.6-1.1,2.5-1.2c0.9-0.1,1.7,0.1,2.5,0.7c1.2,0.8,1.8,1.8,1.8,3c0.1,1.2-0.3,2.4-1.2,3.7c-0.9,1.3-1.9,2-3.1,2.3
	C38.8,153.8,37.6,153.6,36.4,152.7z M41.4,150.1l-0.6-0.4c-0.9-0.6-1.6-1-2.1-1.1c-0.5-0.1-0.9,0-1.2,0.1c-0.3,0.2-0.6,0.5-1,1
	c-0.3,0.5-0.5,1-0.5,1.5c0,0.5,0.2,0.9,0.7,1.3c0.5,0.3,1,0.4,1.6,0.3c0.5-0.1,1-0.4,1.5-0.8c0.4-0.4,0.8-0.9,1.2-1.4L41.4,150.1z"
	/>
<path d="M23.3,138.7c-0.3,0.2-0.4,0.5-0.4,0.9c0,0.3,0.2,0.7,0.5,1c0.3,0.3,0.7,0.5,1.2,0.5c0.5,0,1-0.1,1.6-0.3
	c1-0.5,2-1.1,2.9-2l2.8-2.6l-1-1.1L31,135l3.2,3.4l-0.2,0.2l-0.9-1l-6.4,6l1,1.1l-0.2,0.2l-0.3-0.3c-0.7-0.8-1.5-1.4-2.2-1.9
	l1.5-1.5l-0.1-0.1c-1.5,0.6-2.6,0.5-3.4-0.3c-0.3-0.4-0.5-0.8-0.5-1.2c0-0.5,0.2-0.8,0.5-1.2c0.3-0.3,0.7-0.5,1.1-0.5
	c0.4,0,0.7,0.1,0.9,0.4c0.2,0.3,0.4,0.5,0.4,0.8c0,0.3-0.1,0.6-0.3,0.8c-0.2,0.2-0.5,0.3-0.7,0.3c-0.3,0-0.5-0.1-0.7-0.3
	c-0.3-0.3-0.4-0.7-0.2-1c0.1-0.1,0.1-0.2,0-0.3C23.4,138.7,23.3,138.7,23.3,138.7z"/>
<path d="M14.6,129.3c-1.1-1.8-1-3,0.2-3.7c0.3-0.2,0.7-0.3,1.1-0.2c0.4,0.1,0.6,0.3,0.8,0.6c0.2,0.3,0.2,0.6,0.2,0.9
	c-0.1,0.3-0.2,0.5-0.5,0.7c-0.3,0.2-0.5,0.2-0.8,0.2c-0.3,0-0.5-0.2-0.6-0.4c-0.2-0.4-0.2-0.7,0-1c0.1-0.1,0.1-0.2,0.1-0.3
	c-0.1-0.1-0.1-0.1-0.3-0.1c-0.3,0.2-0.5,0.5-0.6,1c-0.1,0.5,0.1,1,0.5,1.7c0.4,0.6,0.8,1.1,1.4,1.4c0.5,0.3,1,0.3,1.4,0
	c0.4-0.3,0.7-0.6,0.7-1.1c0.1-0.5,0-1-0.1-1.6c-0.1-0.6-0.2-1.2-0.3-1.8c-0.1-0.6-0.1-1.2,0.1-1.7c0.2-0.6,0.5-1,1-1.3
	c0.9-0.5,1.7-0.6,2.5-0.3c0.8,0.4,1.5,1,2,1.9c0.6,0.9,0.8,1.7,0.9,2.5s-0.3,1.3-1,1.7c-0.3,0.2-0.7,0.3-1.1,0.2
	c-0.4-0.1-0.7-0.3-0.9-0.6c-0.2-0.3-0.3-0.6-0.2-0.9c0.1-0.3,0.2-0.5,0.5-0.7c0.3-0.2,0.5-0.2,0.8-0.2c0.3,0,0.5,0.2,0.6,0.4
	c0.2,0.4,0.2,0.7,0,1c-0.1,0.1-0.1,0.2,0,0.3c0.1,0.1,0.1,0.1,0.2,0c0.3-0.2,0.6-0.6,0.6-1.2c0.1-0.6-0.1-1.2-0.6-2
	c-1-1.7-2.1-2.2-3.2-1.5c-0.7,0.4-0.9,1.3-0.6,2.7c0.1,0.6,0.2,1.2,0.3,1.8c0.1,0.6,0.1,1.2-0.1,1.7c-0.2,0.6-0.5,1-1,1.3
	c-0.7,0.5-1.5,0.5-2.3,0.2C15.8,130.7,15.1,130.2,14.6,129.3z"/>
</svg>
