<svg xmlns="http://www.w3.org/2000/svg" viewBox="0 0 683 170">

<defs>
    <style>
        .mantra-footer-logo-text-clr1{fill:#fff;}
        .mantra-footer-logo-bg-clr1{fill:#a68767;}
        .mantra-footer-logo-bg-clr2{fill:#27282c;}
    </style>
</defs>

<path class="mantra-footer-logo-text-clr1" d="M275.92,43.44H306v2.5H293.07v96.32H306v2.5H265.48v-2.5h11.38V53.11h-.94l-30.08,90.25h-.62a8.73,8.73,0,0,1-7.17-3.28,35.61,35.61,0,0,1-4.68-9.35L204.22,53.11h-.77v69.36q0,11.37,4.2,15.59,4.36,4.2,15.75,4.2h1.09v2.5H179.91v-2.5q11.37,0,15.9-4.2,4.51-4.37,4.52-15.59V52.17q-.32-3.73-3-5a15,15,0,0,0-7.17-1.4h-7V43.44h35.38l29.78,80.12h.93Z"/>
<path class="mantra-footer-logo-text-clr1" d="M383.43,141.33q-2.81,0-2.8-6.39V107.35q0-20.73-6.08-29-5.93-8.43-24.47-8.42-10.45,0-17.77,4.52A14.26,14.26,0,0,0,325,87.55a11.44,11.44,0,0,0,3,8,9.86,9.86,0,0,0,7.17,3.12,9.38,9.38,0,0,0,6.7-2.34,7.85,7.85,0,0,0,2.65-5.92,8.74,8.74,0,0,0-2-5.93A6.67,6.67,0,0,0,337,81.94q-5.3,0-6.23,4a1.42,1.42,0,0,1-1.56,1.41c-.83,0-1.25-.47-1.25-1.41q0-4.51,4.83-8.72t15.12-4.21q10.46,0,14.65,6.23t4.21,18.55v7.64h-3.58q-30.87,0-39.59,10a17.83,17.83,0,0,0-4.21,12.16q0,9.83,7.33,15.12a28.78,28.78,0,0,0,17,5.14q9.82,0,16.06-4.52A21.45,21.45,0,0,0,368,130.57h.94a64.25,64.25,0,0,0,.46,8.42,15.2,15.2,0,0,0,2.65,6.08,7.27,7.27,0,0,0,6.08,2.8q13.41,0,15.74-24.16l-2.8-.31Q389.2,141.32,383.43,141.33Zm-16.68-22.6q0,10.44-4.67,17.61t-12.47,7.17q-8,0-11.54-4.52t-3.58-12q0-12.31,10-15.9a36.16,36.16,0,0,1,9.36-2.34q4.67-.47,7.95-.47h5Z"/>
<path class="mantra-footer-logo-text-clr1" d="M472.65,142.42h10.29v2.34H448.49v-2.34h10.29V104.07q0-17.61-2.65-23.22a13.14,13.14,0,0,0-3.9-4.52c-1.66-1.35-4.16-2-7.48-2a15.08,15.08,0,0,0-9.51,3.59,21.6,21.6,0,0,0-6.55,9.82q-3.88,11.07-3.89,26.5v28.21h10.28v2.34H400.64v-2.34h10.29v-67H399.86V73.06h3.27a107.72,107.72,0,0,0,22-2V86.62H426a24.57,24.57,0,0,1,8.89-12,23.45,23.45,0,0,1,14.18-4.68q13.56,0,18.55,8.1,5,8,5,23.85Z"/>
<path class="mantra-footer-logo-text-clr1" d="M534.2,129.33l2.49.93a37.8,37.8,0,0,1-8,12.63,15.85,15.85,0,0,1-11.53,5q-9.2,0-12-5.46-2.65-5.61-2.65-17.46V75.4H491.49V73.06h1.09q17.93,0,21.82-20.57h2V73.06h18.86V75.4H516.43v53q0,13.1,1.71,14.5a3.8,3.8,0,0,0,2.5.78q3.9,0,7.48-4.52A42.18,42.18,0,0,0,534.2,129.33Z"/>
<path class="mantra-footer-logo-text-clr1" d="M679.51,123.4q-1.86,17.92-7.63,17.93c-1.88,0-2.81-2.13-2.81-6.39V107.35q0-20.73-6.08-29-5.93-8.43-24.47-8.42-10.44,0-17.77,4.52a14.27,14.27,0,0,0-7.33,13.09,11.4,11.4,0,0,0,3,8,9.83,9.83,0,0,0,7.17,3.12,9.4,9.4,0,0,0,6.7-2.34,7.85,7.85,0,0,0,2.65-5.92,8.75,8.75,0,0,0-2-5.93,6.66,6.66,0,0,0-5.45-2.49c-3.54,0-5.61,1.35-6.24,4a1.41,1.41,0,0,1-1.56,1.41c-.83,0-1.24-.47-1.24-1.41q0-4.51,4.83-8.72t15.12-4.21q10.44,0,14.65,6.23t4.21,18.55v7.64h-3.59q-30.86,0-39.59,10a17.88,17.88,0,0,0-4.21,12.16q0,9.83,7.33,15.12a28.81,28.81,0,0,0,17,5.14q9.82,0,16-4.52a21.45,21.45,0,0,0,8.26-12.78h.94a64,64,0,0,0,.47,8.42,15.06,15.06,0,0,0,2.65,6.08,7.26,7.26,0,0,0,6.08,2.8q13.39,0,15.74-24.16Zm-24.31-4.67q0,10.44-4.68,17.61-4.51,7.17-12.47,7.17T626.52,139q-3.59-4.53-3.59-12,0-12.31,10-15.9a36.09,36.09,0,0,1,9.35-2.34q4.68-.47,8-.47h5Z"/>
<path class="mantra-footer-logo-text-clr1" d="M598.28,73.68a12,12,0,0,1,3.74,9,11.91,11.91,0,0,1-3.12,8.57,9.51,9.51,0,0,1-7.17,3.12,9.74,9.74,0,0,1-6.7-2.34,8.09,8.09,0,0,1-2.5-5.92,8.72,8.72,0,0,1,2-5.92,6.65,6.65,0,0,1,5.46-2.5q5.29,0,6.23,4.06a1.53,1.53,0,0,0,1.56,1.4c.83,0,1.25-.47,1.25-1.4a8.6,8.6,0,0,0-3-6.71,11.5,11.5,0,0,0-8-2.65,13.54,13.54,0,0,0-9.35,4.06,25.78,25.78,0,0,0-6.54,10.28A81.83,81.83,0,0,0,568,113.43v29h11.38v2.34H543.88v-2.34h10.29v-67H543.1V73.06h3.27a106.27,106.27,0,0,0,22-2V87.24h.94q6.54-17.3,19.63-17.3A12.39,12.39,0,0,1,598.28,73.68Z"/>
<path class="mantra-footer-logo-bg-clr1" d="M150.18,85.75l-.12-3.08a.46.46,0,0,0-.15-.71l-.33-2.41a.46.46,0,0,0-.16-.71c-.1-.8-.19-1.6-.29-2.4a24.57,24.57,0,0,0-1.38-6.29,1.43,1.43,0,0,0-.09-.5,4.29,4.29,0,0,0-.8-2.74c-.06-.3-.11-.59-.17-.89a3.68,3.68,0,0,0-.06-.75,49.6,49.6,0,0,0-3.33-8.59c-.55-1.1-.89-2.42-2-3.17h0a2.3,2.3,0,0,0-.49-1.42c-1-1.66-2.11-3.28-3.15-4.93a48,48,0,0,0-6.79-8.46c-2.26-2.24-4.54-4.46-6.87-6.61A44.36,44.36,0,0,0,114.67,26a15,15,0,0,0-4.47-2l-.08-.06c-.15-.2-.25-.5-.44-.58a76,76,0,0,0-10-3.55A149.91,149.91,0,0,0,84.39,17a40.94,40.94,0,0,0-5.65-.39,84.22,84.22,0,0,0-15.43,1.5,1.28,1.28,0,0,0-.83.49h0a2,2,0,0,0-2,.47h0a2.16,2.16,0,0,0-1.93.56h0a9.6,9.6,0,0,0-5,1.51.73.73,0,0,0-.34.14.91.91,0,0,0-1.07.43,24.68,24.68,0,0,0-5,2.07,4.6,4.6,0,0,0-2.21,1.06.17.17,0,0,0-.25.08c-.4-.12-.62.07-.75.44h-.13l-.08.11c-.38-.11-.61.08-.76.43-.11-.06-.19,0-.23.1-.39-.14-.62.07-.77.42a.14.14,0,0,0-.23.06,33.59,33.59,0,0,0-10.26,7.19l-.08,0A91.59,91.59,0,0,0,24.57,40a39.16,39.16,0,0,0-6.47,8.41c-2,3.28-3.91,6.58-5.71,10A65.64,65.64,0,0,0,7.88,69a16.69,16.69,0,0,0-1.15,4.74v0a1,1,0,0,0-.34,1,.2.2,0,0,0-.07.29,61.21,61.21,0,0,0-4.13,17,58.41,58.41,0,0,0,.07,12.4,47.7,47.7,0,0,0,3.07,13,14,14,0,0,0,2.41,5.68l0,.05a8,8,0,0,0,2,4.09l.24.6c-.09.26,0,.38.26.37l0,.13a2,2,0,0,0,.54,1.39,83.82,83.82,0,0,0,11.59,14.72c.29.29.56.64,1,.67a.85.85,0,0,0,.27.35,9.9,9.9,0,0,0,3.21,3.29c.52,1.08,1.57,1.48,2.47,2.06a1.18,1.18,0,0,0,1,1,2.84,2.84,0,0,0,.45.61,52.1,52.1,0,0,0,7.13,5.07,74.7,74.7,0,0,0,10.87,5.38c2.38.92,4.74,1.95,7.18,2.66,3.46,1,7,1.79,10.5,2.62a46.13,46.13,0,0,0,12.2,1.39c5-.17,10-.34,14.81-1.82a4.53,4.53,0,0,1,1-.13c2.56-.2,4.91-1.23,7.33-2a38,38,0,0,0,4.34-1.82,4.57,4.57,0,0,0,2.28-1.45c3.82-1.65,7-4.39,10.35-6.86a8.46,8.46,0,0,0,3-3l.55-.47a38.26,38.26,0,0,0,7.14-7.57.63.63,0,0,0,.48-.51,3.13,3.13,0,0,0,1.2-1.91l.89-1.09a2.11,2.11,0,0,0,1.24-1.72.75.75,0,0,0,.23-.37c.64-.12.75-.61.74-1.18a.35.35,0,0,0,.18-.21c.14.15.26.13.31-.08,0,0-.07-.12-.11-.18.12-.15.22-.31.33-.47a1,1,0,0,0,.83-1.12l.11-.18c.14.09.25,0,.27-.13s-.07-.09-.12-.14.17-.34.25-.52a56.93,56.93,0,0,0,6.54-12.46l0-.06a27,27,0,0,0,2.82-7.26c.07-.3.15-.6.23-.89a18.1,18.1,0,0,0,1.82-5.86.44.44,0,0,0,.11-.45c.23-.13.34-.31.18-.58.06-.35.12-.7.19-1.06a1.92,1.92,0,0,0,.38-1.59c0-.33.09-.67.14-1a1.85,1.85,0,0,0,.3-1.6c.07-.51.14-1,.2-1.52a2.42,2.42,0,0,0,.4-1.53A18.34,18.34,0,0,0,150,94c0-1.22.1-2.43.15-3.65A8.8,8.8,0,0,0,150.18,85.75ZM40.2,48.67a.78.78,0,0,1,.75.64c-.23.35-.48.69-.72,1l-.77,0C39.71,49.78,40,49.23,40.2,48.67ZM20.06,126.79A10.52,10.52,0,0,1,22,129c.29.39.51.87,1.07.87a.49.49,0,0,0,.15.14.36.36,0,0,0,.2.06.67.67,0,0,0,.51.56.46.46,0,0,0,.05.21.66.66,0,0,0,.12.17,1.46,1.46,0,0,0,.9,1.58l1.55,1.53c.11.68.62,1,1.11,1.29l.12.11a10.62,10.62,0,0,0,2.68,2.75q.32.45.66.87a14.34,14.34,0,0,0,1.44,1.57h0l.27.22c.2.18.4.35.61.51a1.13,1.13,0,0,1-.65.88c-.1-.14-.21-.27-.32-.41a1.23,1.23,0,0,0-1.16-.87l-.84-.64a1,1,0,0,0-1-.57,1.07,1.07,0,0,0-1-1c-1.72-2.06-3.43-4.13-5.15-6.18a27.6,27.6,0,0,1-2.07-2.85c-.27-.43-.56-.85-.81-1.3,0-.31-.11-.47-.4-.49-.18-.36-.36-.72-.55-1.08A.4.4,0,0,1,20.06,126.79Zm50.12,35.58a.92.92,0,0,1-.32.43h0a1.3,1.3,0,0,0-.33-.3,1.5,1.5,0,0,0-1.18,0l-.91,0-1-.07-5.93-1.11a7.65,7.65,0,0,1-.92-.31,4.18,4.18,0,0,0-2.87-.36c-1.37-.51-2.72-1.09-4.12-1.52-1.72-.52-3.23-1.67-5.08-1.79-.28,0-.53-.35-.81-.52a15.05,15.05,0,0,0-2-1.09,54.88,54.88,0,0,1-7.17-3.84A11,11,0,0,1,35,150.15a5.55,5.55,0,0,0-2-1.38,2.88,2.88,0,0,1-.66-.31,2.5,2.5,0,0,1-.92-1.24c-.05-.14-.11-.26-.15-.41a2,2,0,0,1-.41-.22,2.48,2.48,0,0,1-.36-.28c-.11-.11-.22-.22-.32-.34s-.21-.23-.31-.35a.84.84,0,0,0-.92-.54l-1.08-1A7.66,7.66,0,0,0,25.93,142l0,0a.44.44,0,0,0-.54-.41c-1.44-.78-2.16-2.3-3.2-3.48h0c-.36-.41-.71-.84-1.05-1.26l-1-1.29-.3-.4c-.27-.47-.55-.93-.83-1.39a.47.47,0,0,0-.44-.54l0,0a.9.9,0,0,0,0-.49.94.94,0,0,0-.44,0c-.26-.52-.52-1-.77-1.56a1.42,1.42,0,0,1,1.51,1.35l1.65.76,0,0A2.88,2.88,0,0,0,22,135.74h0a.47.47,0,0,0,.38.56,15.94,15.94,0,0,1,2,1.89c1.86,2.5,4.32,4.35,6.4,6.61a.93.93,0,0,0,.3.2,3.36,3.36,0,0,1,.33.16c.1.26.26.42.54.37l.05,0c.15.07.32.11.47.17a1,1,0,0,1,.42.23,35.61,35.61,0,0,0,6.75,4.66,11.28,11.28,0,0,1,2.91,1.89,1.24,1.24,0,0,0,.87.43c1.39-.12,2.27.83,3.27,1.57.33.25.68.49,1,.73a2,2,0,0,0,1.63.81c.54,0,1.09.07,1.63.11l.11.11A5.61,5.61,0,0,0,54.46,158c2.63.61,5.21,1.34,7.79,2.13a35.59,35.59,0,0,0,4.77,1,12.8,12.8,0,0,1,3.06.75.73.73,0,0,1,.11.27A.49.49,0,0,1,70.18,162.37ZM105.85,28.25h0a16.63,16.63,0,0,1-3.5-.94c-.18-.08-.36-.17-.55-.24a4,4,0,0,0-.67-.21,3.47,3.47,0,0,0-.55-.08,2.34,2.34,0,0,0-.57.07c-.88-.22-1.76-.42-2.65-.63-1.4-.33-2.8-.67-4.2-1-.73-.2-1.46-.37-2.2-.52-2.21-.44-4.45-.71-6.68-1-.11-.2-.21-.41-.4-.76,3.74-.18,7.43-.28,11,1a.6.6,0,0,0,.25.27.35.35,0,0,0,.17,0,.51.51,0,0,0,.2,0,3.81,3.81,0,0,0,.92.25,3.29,3.29,0,0,0,.94,0,5.34,5.34,0,0,0,2.2,1,2.9,2.9,0,0,0,.83,0,.41.41,0,0,0,.18.1.44.44,0,0,0,.2,0,1.36,1.36,0,0,0,.71.51,1.18,1.18,0,0,0,.42.05,1.53,1.53,0,0,0,.45-.08l.53.26a2.31,2.31,0,0,0,.55.21,1.26,1.26,0,0,0,.39,0c.16.16.28.39.44.55a.61.61,0,0,0,.66.16l.91.22C105.83,27.66,106.18,28,105.85,28.25Z"/>
<path class="mantra-footer-logo-bg-clr2" d="M127.45,109.26c-5.27,0-13.69,3.64-22.21,8.22C103.59,105.94,91.67,97,79.8,89.05l.54-.36c2.31-1.51,4.48-2.94,6.57-4.38,11.74-8.53,18.09-17.06,19.42-26.1,1.89-12.93-6.78-24.29-15.16-35.27C85.48,15.49,80.11,8.45,78.55,1.55a.49.49,0,0,0-.06-.17,1.15,1.15,0,0,0-.1-.23,1.19,1.19,0,0,0-.31-.39l-.2-.15L77.68.5h0L77.41.41l-.13,0a2.29,2.29,0,0,0-.37,0l-.15,0-.25.08a1,1,0,0,0-.23.12l-.21.16a1.66,1.66,0,0,0-.4.61.49.49,0,0,0-.06.17C74.06,8.45,68.68,15.49,63,22.94c-8.39,11-17,22.34-15.16,35.27,1.32,9,7.67,17.57,19.44,26.12,2.07,1.42,4.24,2.85,6.55,4.36l.53.35c-10.47,7-21.07,14.89-24.48,24.67-7.62-3.09-15.53-5.13-23.4-4.46C11.53,110.52.68,122.12.68,136.84c0,15.22,11.68,27.6,26,27.6,10.11,0,31.91-13.45,43.57-21.16h0c3.26,1.47,6.17,2.9,8.48,4.05,2.62,1.3,5.27,2.7,8.07,4.18,11.63,6.15,24.69,13.07,37.8,13.07,1,0,2,0,3-.13,14.95-1.27,25.8-12.87,25.8-27.59C153.48,121.64,141.8,109.26,127.45,109.26ZM69,81.88C58,73.86,52,66,50.81,57.78c-1.71-11.69,6.57-22.53,14.57-33,4.71-6.18,9.22-12.08,11.71-18,2.48,6,7,11.87,11.7,18.05,8,10.49,16.28,21.33,14.57,33C102.16,66,96.2,73.85,85.18,81.86c-2,1.4-4.2,2.82-6.49,4.32l-1.61,1.06-1.61-1C73.18,84.68,71,83.26,69,81.88Zm8.07,9c12.07,8,24.49,17,25.3,28.2-6.88,3.86-13.61,8.13-18.52,11.38-3.26-1.47-6.17-2.9-8.48-4-2.62-1.3-5.27-2.7-8.08-4.19-4.68-2.48-9.6-5.08-14.66-7.31C55.79,105.58,66.63,97.78,77.09,90.84Zm-7.08,49C55.25,133.4,34.22,127,24.12,141.35a1.5,1.5,0,0,0,.36,2.09,1.51,1.51,0,0,0,2.09-.36c8.47-12,26.68-7,40.44-1.24-11.71,7.64-31.45,19.6-40.29,19.6-12.71,0-23-11-23-24.6,0-13.33,9.48-23.45,23.06-24.6,13.23-1.12,27,6.16,39.17,12.6,2.82,1.49,5.49,2.9,8.15,4.22,1.94,1,4.27,2.11,6.88,3.32-2.41,1.62-4,2.77-4.59,3.16l-.12.07,0,0C75.84,135.89,73.51,137.52,70,139.86Zm57.42,21.6c-13.24,1.12-27-6.17-39.17-12.6-2.83-1.49-5.49-2.9-8.15-4.22-1.94-1-4.27-2.12-6.88-3.33,2.48-1.67,4.15-2.84,4.63-3.18l.1-.07h0c.35-.24,2.68-1.88,6.19-4.21,14.76,6.45,35.78,12.81,45.88-1.49a1.5,1.5,0,0,0-2.46-1.73c-8.46,12-26.68,7-40.43,1.24,4.86-3.17,11.1-7.08,17.37-10.58a2,2,0,0,0,.25-.14c8.76-4.86,17.55-8.88,22.67-8.88,12.7,0,23,11,23,24.6C150.48,150.19,141,160.31,127.43,161.46Z"/>
<path class="mantra-footer-logo-bg-clr2" d="M77.09,42.77c-6.88,0-12.47,5.9-12.47,13.16S70.21,69.1,77.09,69.1s12.47-5.91,12.47-13.17S84,42.77,77.09,42.77Zm0,23.33c-5.23,0-9.47-4.56-9.47-10.17s4.24-10.16,9.47-10.16,9.47,4.56,9.47,10.16S82.31,66.1,77.09,66.1Z"/>

</svg>