<svg xmlns="http://www.w3.org/2000/svg" viewBox="0 0 387 134">

<defs>
    <style>
        .mantra-logo-text-clr1{fill:#27282c;}
        .mantra-logo-bg-clr1{fill:#c1a78c;}
    </style>
</defs>

<path class="mantra-logo-text-clr1" d="M317.72,82.44l1.16.44a17.52,17.52,0,0,1-3.71,5.87,7.34,7.34,0,0,1-5.37,2.32q-4.26,0-5.57-2.54c-.82-1.74-1.24-4.45-1.24-8.12V57.35h-5.14V56.26h.51q8.34,0,10.15-9.57h.94v9.57h8.78v1.09h-8.78V82c0,4.07.27,6.31.79,6.75a1.8,1.8,0,0,0,1.17.36,4.6,4.6,0,0,0,3.48-2.1A20,20,0,0,0,317.72,82.44Z"/>
<path class="mantra-logo-text-clr1" d="M247.57,88c-.87,0-1.31-1-1.31-3V72.21q0-9.64-2.83-13.48t-11.38-3.92a15.44,15.44,0,0,0-8.27,2.1A6.66,6.66,0,0,0,220.36,63a5.35,5.35,0,0,0,1.38,3.7,4.62,4.62,0,0,0,3.35,1.45,4.44,4.44,0,0,0,3.12-1.08,3.68,3.68,0,0,0,1.22-2.76,4,4,0,0,0-.94-2.76A3.1,3.1,0,0,0,226,60.39c-1.66,0-2.61.63-2.91,1.89a.64.64,0,0,1-.72.65c-.38,0-.59-.22-.59-.65A5.48,5.48,0,0,1,224,58.22q2.25-2,7-2t6.81,2.9c1.31,1.93,2,4.81,2,8.63v3.55h-1.66q-14.35,0-18.42,4.65a8.3,8.3,0,0,0-2,5.65,8.18,8.18,0,0,0,3.41,7,13.47,13.47,0,0,0,7.91,2.39,12.48,12.48,0,0,0,7.47-2.1,10.06,10.06,0,0,0,3.84-6h.44a30.82,30.82,0,0,0,.21,3.92,7,7,0,0,0,1.24,2.82,3.38,3.38,0,0,0,2.83,1.31q6.22,0,7.31-11.24l-1.31-.15Q250.26,88,247.57,88ZM239.8,77.51a14.66,14.66,0,0,1-2.16,8.19A6.54,6.54,0,0,1,231.83,89c-2.47,0-4.25-.7-5.36-2.1a8.78,8.78,0,0,1-1.67-5.59q0-5.73,4.63-7.4a16.74,16.74,0,0,1,4.36-1.08,36.59,36.59,0,0,1,3.69-.22h2.32Z"/>
<path class="mantra-logo-text-clr1" d="M289.08,88.53h4.78v1.09h-16V88.53h4.79V70.69q0-8.19-1.24-10.8a6,6,0,0,0-1.81-2.11,5.43,5.43,0,0,0-3.48-.94,7.06,7.06,0,0,0-4.43,1.67,10,10,0,0,0-3,4.57,37.2,37.2,0,0,0-1.81,12.33V88.53h4.78v1.09h-16V88.53h4.78V57.35h-5.15V56.26h1.52A50.06,50.06,0,0,0,267,55.32v7.25h.44A11.5,11.5,0,0,1,271.53,57a10.9,10.9,0,0,1,6.6-2.17q6.31,0,8.63,3.77c1.54,2.47,2.32,6.16,2.32,11.1Z"/>
<path class="mantra-logo-text-clr1" d="M197.55,42.48h14v1.16h-6V88.46h6v1.16H192.68V88.46H198V47h-.43l-14,42h-.29a4.07,4.07,0,0,1-3.34-1.53,16.49,16.49,0,0,1-2.18-4.35L164.18,47h-.35V79.25q0,5.3,2,7.25t7.32,2h.5v1.16H152.88V88.46c3.53,0,6-.65,7.4-2s2.1-3.77,2.1-7.25V46.54A2.56,2.56,0,0,0,161,44.22a6.91,6.91,0,0,0-3.33-.65H154.4V42.48h16.46l13.85,37.28h.44Z"/>
<path class="mantra-logo-text-clr1" d="M385.33,79.68c-.59,5.56-1.78,8.34-3.55,8.34-.87,0-1.31-1-1.31-3V72.21q0-9.64-2.83-13.48t-11.38-3.92a15.53,15.53,0,0,0-8.28,2.1,6.67,6.67,0,0,0-3.4,6.09A5.31,5.31,0,0,0,356,66.7a4.56,4.56,0,0,0,3.33,1.45,4.39,4.39,0,0,0,3.12-1.08,3.7,3.7,0,0,0,1.24-2.76,4.08,4.08,0,0,0-.95-2.76,3.1,3.1,0,0,0-2.53-1.16q-2.48,0-2.91,1.89a.65.65,0,0,1-.72.65c-.39,0-.58-.22-.58-.65a5.48,5.48,0,0,1,2.25-4.06q2.25-2,7-2c3.25,0,5.51,1,6.82,2.9s2,4.81,2,8.63v3.55h-1.67c-9.58,0-15.71,1.55-18.43,4.65a9.05,9.05,0,0,0,1.46,12.69,13.44,13.44,0,0,0,7.9,2.39,12.36,12.36,0,0,0,7.46-2.1,10,10,0,0,0,3.86-6H375a30.82,30.82,0,0,0,.21,3.92,7,7,0,0,0,1.24,2.82,3.38,3.38,0,0,0,2.82,1.31q6.26,0,7.34-11.24ZM374,77.51a14.66,14.66,0,0,1-2.18,8.19A6.53,6.53,0,0,1,366,89q-3.71,0-5.37-2.1A8.72,8.72,0,0,1,359,81.35q0-5.73,4.66-7.4A16.61,16.61,0,0,1,368,72.87a36.78,36.78,0,0,1,3.71-.22H374Z"/>
<path class="mantra-logo-text-clr1" d="M347.53,56.55a5.61,5.61,0,0,1,1.74,4.21,5.51,5.51,0,0,1-1.45,4,4.42,4.42,0,0,1-3.34,1.45,4.57,4.57,0,0,1-3.12-1.08,3.79,3.79,0,0,1-1.15-2.76,4,4,0,0,1,.94-2.75,3.06,3.06,0,0,1,2.53-1.16c1.65,0,2.62.62,2.91,1.88.09.44.33.65.71.65s.6-.21.6-.65a4,4,0,0,0-1.38-3.12,5.37,5.37,0,0,0-3.7-1.23,6.32,6.32,0,0,0-4.35,1.88,12.05,12.05,0,0,0-3.05,4.79,38,38,0,0,0-2,12.4V88.53h5.3v1.09H322.22V88.53H327V57.35h-5.15V56.26h1.52a49.45,49.45,0,0,0,10.23-.94v7.54H334q3-8.05,9.13-8A5.75,5.75,0,0,1,347.53,56.55Z"/>
<path class="mantra-logo-bg-clr1" d="M119.36,67.26c0-.81-.07-1.63-.1-2.44a.36.36,0,0,0-.12-.56c-.09-.64-.17-1.27-.26-1.91a.36.36,0,0,0-.14-.56c-.07-.63-.15-1.27-.22-1.9a19.24,19.24,0,0,0-1.11-5,1.12,1.12,0,0,0-.07-.4,3.32,3.32,0,0,0-.64-2.16c0-.24-.09-.47-.13-.71a2.94,2.94,0,0,0,0-.59,38.2,38.2,0,0,0-2.68-6.79,5.67,5.67,0,0,0-1.57-2.5h0a1.87,1.87,0,0,0-.4-1.13c-.83-1.31-1.69-2.59-2.52-3.89a37,37,0,0,0-5.43-6.69c-1.82-1.77-3.64-3.53-5.5-5.23A35.78,35.78,0,0,0,90.92,20a11.74,11.74,0,0,0-3.58-1.59l-.06-.05c-.12-.15-.19-.39-.35-.45a60.51,60.51,0,0,0-8-2.81A120.41,120.41,0,0,0,66.68,12.9a34,34,0,0,0-4.52-.31,68.24,68.24,0,0,0-12.34,1.19,1,1,0,0,0-.67.39h0a1.66,1.66,0,0,0-1.58.37h0A1.77,1.77,0,0,0,46,15h0a7.76,7.76,0,0,0-4,1.19.7.7,0,0,0-.28.12.71.71,0,0,0-.85.34,18.82,18.82,0,0,0-4,1.64,3.69,3.69,0,0,0-1.79.83c-.08,0-.14,0-.2.07-.31-.1-.49.05-.59.35l-.1,0-.07.09c-.31-.09-.49.06-.61.34-.08,0-.14,0-.19.08-.31-.11-.49.06-.61.33a.12.12,0,0,0-.19,0,27.17,27.17,0,0,0-8.21,5.68l-.06.05c-1.95,1.48-3.63,3.3-5.43,5a31.36,31.36,0,0,0-5.18,6.65C12,40.35,10.48,43,9,45.64A52.78,52.78,0,0,0,5.42,54a12.56,12.56,0,0,0-.9,3.74v0a.79.79,0,0,0-.28.8.18.18,0,0,0-.06.23A48.21,48.21,0,0,0,.86,72.24a45.32,45.32,0,0,0,.06,9.81A37.15,37.15,0,0,0,3.38,92.31a10.72,10.72,0,0,0,1.94,4.5v0a6.29,6.29,0,0,0,1.57,3.23c.07.16.13.31.19.47s0,.3.21.3l0,.1a1.52,1.52,0,0,0,.43,1.1A67.06,67.06,0,0,0,17,113.69c.24.23.45.5.81.52a.73.73,0,0,0,.23.29,7.76,7.76,0,0,0,2.57,2.59c.42.86,1.25,1.17,2,1.63a1,1,0,0,0,.81.81,2.15,2.15,0,0,0,.36.48,43,43,0,0,0,5.7,4,61.14,61.14,0,0,0,8.72,4.26c1.89.72,3.78,1.53,5.73,2.09,2.78.8,5.6,1.42,8.41,2.08a37.48,37.48,0,0,0,9.76,1.09c4-.13,8-.26,11.87-1.43a3.35,3.35,0,0,1,.79-.1,27.82,27.82,0,0,0,5.85-1.58A31.94,31.94,0,0,0,84.09,129a3.67,3.67,0,0,0,1.82-1.14c3.06-1.3,5.62-3.47,8.3-5.43A6.7,6.7,0,0,0,96.58,120l.45-.37a30.15,30.15,0,0,0,5.7-6,.49.49,0,0,0,.4-.4,2.5,2.5,0,0,0,1-1.51c.24-.28.47-.57.71-.86a1.66,1.66,0,0,0,1-1.36.52.52,0,0,0,.18-.3c.51-.09.61-.48.6-.93a.28.28,0,0,0,.14-.16c.12.12.2.1.25-.06s0-.1-.08-.15.16-.25.26-.37a.77.77,0,0,0,.65-.89l.1-.14c.12.07.2,0,.21-.1s-.06-.08-.09-.11l.2-.41a46.11,46.11,0,0,0,5.24-9.86l0,0a21.18,21.18,0,0,0,2.25-5.73c.06-.24.12-.47.19-.71a13.89,13.89,0,0,0,1.45-4.63.35.35,0,0,0,.1-.36.28.28,0,0,0,.13-.45q.09-.42.15-.84a1.46,1.46,0,0,0,.31-1.26c0-.26.08-.53.11-.79a1.45,1.45,0,0,0,.25-1.27c.06-.4.11-.8.16-1.2a1.91,1.91,0,0,0,.32-1.21,13.84,13.84,0,0,0,.35-3.74c0-1,.09-1.93.12-2.89A6.79,6.79,0,0,0,119.36,67.26ZM31.3,37.94a.61.61,0,0,1,.61.51l-.57.81h-.62C30.91,38.82,31.11,38.38,31.3,37.94ZM15.17,99.7a8.49,8.49,0,0,1,1.53,1.74c.22.3.39.68.84.69l.13.11a.48.48,0,0,0,.17.05.54.54,0,0,0,.4.44.42.42,0,0,0,0,.16.32.32,0,0,0,.1.13,1.15,1.15,0,0,0,.71,1.25l1.25,1.22c.08.54.5.76.88,1l.1.09a8.57,8.57,0,0,0,2.15,2.18l.52.69a11.35,11.35,0,0,0,1.16,1.24h0a1.71,1.71,0,0,0,.2.18l.49.4a.87.87,0,0,1-.51.7c-.08-.11-.18-.22-.26-.32-.13-.49-.51-.62-.92-.7-.24-.16-.46-.33-.69-.5a.77.77,0,0,0-.79-.45.84.84,0,0,0-.79-.83l-4.13-4.88a22.89,22.89,0,0,1-1.66-2.25c-.21-.34-.44-.68-.64-1a.33.33,0,0,0-.32-.39c-.16-.29-.3-.57-.44-.85C14.84,99.61,15,99.56,15.17,99.7ZM55.3,127.83a.62.62,0,0,1-.25.34h0a1.66,1.66,0,0,0-.27-.23,1.14,1.14,0,0,0-.94,0l-.74,0-.84-.06-4.73-.88a6.39,6.39,0,0,1-.74-.24,3.38,3.38,0,0,0-2.3-.29c-1.09-.4-2.19-.86-3.31-1.19-1.37-.42-2.57-1.33-4.06-1.42-.21,0-.43-.28-.64-.41a10.9,10.9,0,0,0-1.56-.86,43.19,43.19,0,0,1-5.75-3,9.11,9.11,0,0,1-2-1.32,4.26,4.26,0,0,0-1.64-1.09,2.51,2.51,0,0,1-.52-.25,1.87,1.87,0,0,1-.74-1,1.21,1.21,0,0,1-.11-.32,2.15,2.15,0,0,1-.34-.17l-.29-.23a3.07,3.07,0,0,1-.25-.26,2.1,2.1,0,0,1-.25-.28.68.68,0,0,0-.74-.43l-.87-.78a6.34,6.34,0,0,0-1.53-1.65l0,0a.34.34,0,0,0-.43-.32c-1.14-.62-1.72-1.82-2.57-2.76h0c-.28-.33-.57-.66-.84-1s-.55-.68-.84-1l-.22-.33-.68-1.09a.37.37,0,0,0-.35-.43l0,0a.62.62,0,0,0,0-.38.89.89,0,0,0-.36,0c-.21-.41-.4-.82-.62-1.23a1.12,1.12,0,0,1,1.22,1.06l1.32.6,0,0a2.31,2.31,0,0,0,1.22,2h0a.35.35,0,0,0,.3.44,15.9,15.9,0,0,1,1.57,1.5c1.49,2,3.45,3.44,5.12,5.22a.67.67,0,0,0,.24.16c.08.05.18.08.27.13a.35.35,0,0,0,.43.29l0,0,.39.13a1.52,1.52,0,0,1,.33.18,29,29,0,0,0,5.4,3.69A9.37,9.37,0,0,1,33.14,120a.92.92,0,0,0,.69.34c1.1-.09,1.82.66,2.62,1.24.27.2.53.39.81.58a1.56,1.56,0,0,0,1.29.64c.44,0,.88.06,1.31.09L40,123a4.54,4.54,0,0,0,2.77,1.38c2.11.47,4.18,1,6.25,1.68a28.68,28.68,0,0,0,3.81.82,10.6,10.6,0,0,1,2.44.59.65.65,0,0,1,.1.21A.22.22,0,0,1,55.3,127.83Zm28.56-106A13.54,13.54,0,0,1,81.07,21l-.44-.19a3.68,3.68,0,0,0-.54-.16,1.67,1.67,0,0,0-.44-.06,1.38,1.38,0,0,0-.45.05l-2.12-.5c-1.13-.26-2.25-.53-3.37-.82-.58-.16-1.18-.29-1.76-.41-1.78-.35-3.56-.57-5.36-.83-.07-.16-.17-.33-.31-.61,3-.14,5.94-.22,8.81.8a.64.64,0,0,0,.21.22.31.31,0,0,0,.13,0,.45.45,0,0,0,.16,0,3.44,3.44,0,0,0,.75.19,2.36,2.36,0,0,0,.75,0,4.38,4.38,0,0,0,1.75.79,3.1,3.1,0,0,0,.68,0,.26.26,0,0,0,.14.07.29.29,0,0,0,.16,0,1.13,1.13,0,0,0,.57.41,1.15,1.15,0,0,0,.33,0,1.72,1.72,0,0,0,.37-.07l.42.21a2.09,2.09,0,0,0,.44.16,1.48,1.48,0,0,0,.31,0c.13.12.22.3.35.43a.48.48,0,0,0,.53.12l.72.18C83.84,21.32,84.13,21.56,83.86,21.79Z"/>
<path class="mantra-logo-text-clr1" d="M60.84,34a9.74,9.74,0,1,0,9.27,9.73A9.53,9.53,0,0,0,60.84,34Zm0,18.45a8.74,8.74,0,1,1,8.27-8.72A8.53,8.53,0,0,1,60.84,52.4Z"/>
<path class="mantra-logo-text-clr1" d="M101.16,86.53c-4.31,0-11.34,3.1-18.38,6.9-.69-9.59-11-17-21-23.58L63.05,69c1.85-1.2,3.59-2.33,5.24-3.45,9.25-6.64,14.25-13.25,15.26-20.21C85,35.42,78.17,26.57,71.55,18,67,12.06,62.6,6.44,61.33.83a.07.07,0,0,0,0-.06.27.27,0,0,0-.07-.14.35.35,0,0,0-.13-.11h0a.43.43,0,0,0-.12,0l-.12,0h-.14a.27.27,0,0,0-.12.06h0a.26.26,0,0,0-.12.11.29.29,0,0,0-.08.14.07.07,0,0,0,0,.06C59.07,6.44,54.72,12.06,50.11,18c-6.6,8.56-13.45,17.41-12,27.34,1,7,6,13.57,15.29,20.21C55,66.68,56.78,67.81,58.61,69l1.3.84c-8.81,5.78-18,12.3-20.43,20.42-6.22-2.56-12.7-4.3-19.09-3.76-11.8,1-20,9.68-20,21.13,0,11.66,9.05,21.14,20.15,21.14,8,0,25.65-10.82,34.83-16.83,2.76,1.22,5.23,2.42,7.17,3.37,2.1,1,4.22,2.15,6.47,3.32,9.24,4.83,19.61,10.25,29.93,10.25.8,0,1.58,0,2.37-.1,11.8-1,20-9.68,20-21.13C121.3,96,112.27,86.53,101.16,86.53Zm-42-18.36C57.33,67,55.59,65.85,54,64.75,45,58.28,40.08,51.88,39.1,45.2,37.71,35.69,44.41,27,50.91,18.62,55.13,13.16,59.14,8,60.84,2.73c1.69,5.24,5.7,10.43,9.93,15.89C77.26,27,84,35.69,82.58,45.2c-1,6.68-5.85,13.08-14.86,19.54-1.63,1.11-3.38,2.24-5.21,3.43l-1.67,1.08Zm1.68,2.29C70.91,77,81.45,84.5,81.8,94c-5.77,3.17-11.44,6.75-15.47,9.39-2.76-1.22-5.23-2.42-7.17-3.37-2.11-1-4.23-2.14-6.48-3.32-3.9-2-8-4.2-12.27-6C42.76,82.71,52,76.21,60.84,70.46Zm-5.61,40.35c-11.64-5.07-28.37-10.22-36.22.79a.5.5,0,1,0,.81.58c7.31-10.23,23.08-5.58,34.4-.72-9.25,6-26.19,16.32-33.71,16.32-10.55,0-19.15-9-19.15-20.14,0-10.91,7.86-19.19,19.11-20.13,10.8-.91,21.93,4.91,31.75,10,2.25,1.18,4.38,2.29,6.5,3.33,1.82.89,4.07,2,6.61,3.12-2.54,1.68-4.26,2.88-4.72,3.2l-.06,0s0,0,0,0C60.22,107.47,58.22,108.85,55.23,110.81Zm46,17c-10.8.91-21.94-4.9-31.75-10-2.26-1.17-4.39-2.29-6.51-3.32-1.82-.89-4.07-2-6.61-3.13,2.54-1.68,4.26-2.88,4.71-3.2l.09,0h0c.3-.21,2.29-1.59,5.27-3.55,11.64,5.07,28.36,10.22,36.23-.79a.48.48,0,0,0-.12-.7.51.51,0,0,0-.69.12c-7.32,10.23-23.08,5.58-34.4.72,9.25-6,26.19-16.31,33.71-16.31,10.56,0,19.14,9,19.14,20.13C120.3,118.57,112.45,126.85,101.21,127.79Z"/>

</svg>